. 
  
http://www.torrenting.com/        :     Greatest Movie Tracker on The Net!!!
 
http://www.Torrenting.com          :     Once & For all ;)


               www . Torrenting . Com 

(((((((((((((= Enjoy No RAR releases =))))))))))))))))))))


...................................NFO:....................................

. 

                  
                                                  
                               
                                           
                   
                    
                         
                        
                      
                   
                   
                       
                           
                           
                                
                                       
                                    
                              SINCE 2011 
  




[b][size=4][color=red]i[/color][color=grey]N[/color][color=red]i[/color][color=grey]T[/color][color=red]i[/color][color=grey]ALan[/color][color=blue]I[/color][color=grey]me[/color] Presents............[/size][/b]

[center][size=5][color=darkorange]Legend Of The Millennium Dragon[/color][/size]
[img]http://www.pix2links.com/image/xGQYs.png[/img][/center]



[img]http://www.pix2links.com/images/13099716104153237347.png[/img]

[b][color=darkorange]General[/color]
[color=blue]Encoder                          : unsentletter [iNiTiALanIme]
Language                         : English[/color]
Complete name                    : Legend Of The Millennium Dragon [iNiTiALanIme ENCODE]\Legend Of The Millennium Dragon.avi
Format                           : AVI
Format/Info                      : Audio Video Interleave
Format profile                   : OpenDML
File size                        : 1.76 GiB
Duration                         : 1h 38mn
Overall bit rate                 : 2 568 Kbps
Movie name                       : Legend Of The Millennium Dragon
Writing application              : Lavf52.78.4
Original source form/Name        : Legend.of.the.Millennium.Dragon.2011.Blu-Ray.1080p.AVC.DTS-HD.MA5.1-CHDBits

[color=darkorange]Video[/color]
ID                               : 0
Format                           : AVC
Format/Info                      : Advanced Video Codec
Codec ID                         : H264
Duration                         : 1h 38mn
Bit rate                         : 2 108 Kbps
Width                            : 1 920 pixels
Height                           : 1 080 pixels
Display aspect ratio             : 16:9
Frame rate                       : 23.976 fps
Color space                      : YUV
Chroma subsampling               : 4:2:0
Bits/(Pixel*Frame)               : 0.042
Stream size                      : 1.45 GiB (82%)

[color=darkorange]Audio[/color]
ID                               : 1
Format                           : AC-3
Format/Info                      : Audio Coding 3
Mode extension                   : CM (complete main)
Codec ID                         : 2000
Duration                         : 1h 38mn
Bit rate mode                    : Constant
Bit rate                         : 448 Kbps
Channel(s)                       : 6 channels
Channel positions                : Front: L C R, Side: L R, LFE
Sampling rate                    : 48.0 KHz
Bit depth                        : 16 bits
Stream size                      : 315 MiB (17%)
Alignment                        : Aligned on interleaves
Interleave, duration             : 32 ms (0.77 video frame)
Interleave, preload duration     : 32 ms[/b]



[img]http://www.pix2links.com/images/80034587597690082617.png[/img]

A 15-year-old boy goes 1200 years back in time to find his unlikely destiny as the savior to end the war between humans and demons. 



[img]http://www.pix2links.com/images/55005844016593244392.png[/img]

 Ryuji Aigase ...  (voice) 
 Satomi Ishihara ...  (voice) 
 Kentar It ...  (voice) 
 Yasuyuki Kase ...  (voice) 
 Ssuke Komori ...  (voice) 
 Takashi Kond ...  (voice) 
 Shotaro Morikubo ...  (voice) 
 Shid Nakamura ...  (voice) 
 Akio Nojima ...  (voice) 
 Kensho Ono ...  (voice) 
 Shunsuke Sakuya ...  (voice) 
 Masaaki Tsukada ...  (voice) 
 Kanako Tjo ...  (voice) 


[img]http://www.pix2links.com/images/30216879873266717110.png[/img]

[color=red]the trailer is Japanese but my encode is in English -unsentletter-[/color]




[img]http://www.pix2links.com/images/02624213968635483899.png[/img]

[img]http://www.pix2links.com/image/N96jk.png[/img]
[img]http://www.pix2links.com/image/6AIZV.png[/img]
[img]http://www.pix2links.com/image/1sG4a.png[/img]
[img]http://www.pix2links.com/image/u4RZY.png[/img]
[img]http://www.pix2links.com/image/1sEL.png[/img]
[img]http://www.pix2links.com/image/wz4Zm.png[/img]
[img]http://www.pix2links.com/image/vBfGd.png[/img]
[img]http://www.pix2links.com/image/cj9QS.png[/img]
[img]http://www.pix2links.com/image/umczM.png[/img]
[img]http://www.pix2links.com/image/JRTic.png[/img]


[img]http://www.pix2links.com/images/88091215862305605503.png[/img]

While doing this encode I was informed by iNiTiALanIme team member bigspawn23 of the passing of his father, All those who know bigspawn will know he is a invaluable member of iNiTiALanIme and a respected member of many private trackers. Understandably bigspawn23 will be on a break for a while and we would like to pass our wishes to his family for this dificult time,
-unsentletter- 


[b][size=4][color=red]i[/color][color=grey]N[/color][color=red]i[/color][color=grey]T[/color][color=red]i[/color][color=grey]ALan[/color][color=blue]I[/color][color=grey]me[/color][/size][/b] [color=darkorange]gives greets to[/color] 
[color=blue]unsentletter, bigspawn, jaiwalla, amartis, paranoid53, DiVERSiTY RG, BHRG, PRESTiGE RG, all anime groups and fansub groups, all the staff at our upload sites & all the people who make p2p what is[/color]
[color=red]Remember p[/color][color=blue]2[/color][color=red]p is about more than free movies and music its a community be involved!! Dont Hit and Run !! Seed back what you leech!![/color]

[img]http://www.shareimage.ro/images/8k8z481qdhru1oz6lvk.png[/img]


[b][size=4][color=red]i[/color][color=grey]N[/color][color=red]i[/color][color=grey]T[/color][color=red]i[/color][color=grey]ALan[/color][color=blue]I[/color][color=grey]me[/color][/size][/b] [color=darkorange]gives greets to[/color] 
[color=blue]unsentletter, bigspawn, jaiwalla, amartis, paranoid53, DiVERSiTY RG, BHRG, PRESTiGE RG, all anime groups and fansub groups, all the staff at our upload sites & all the people who make p2p what is[/color]
[color=red]Remember p[/color][color=blue]2[/color][color=red]p is about more than free movies and music its a community be involved!! Dont Hit and Run !! Seed back what you leech!![/color]







INITIALANIME 2011